<svg width="22" height="9" viewBox="0 0 22 9" fill="none" xmlns="http://www.w3.org/2000/svg">
<path d="M19.6533 0C20.9493 0 22 1.05065 22 2.34668V6.45312C22 7.74915 20.9493 8.7998 19.6533 8.7998H2.34668L2.10645 8.78809C0.923252 8.66779 0 7.66806 0 6.45312V2.34668C0 1.13174 0.923242 0.132005 2.10645 0.0117188L2.34668 0H19.6533ZM2.34668 1C1.60294 1 1 1.60294 1 2.34668V6.45312C1 7.19687 1.60294 7.7998 2.34668 7.7998H19.6533C20.3971 7.7998 21 7.19687 21 6.45312V2.34668C21 1.60294 20.3971 1 19.6533 1H2.34668Z" fill="white"/>
<path d="M5.21777 3.58008V5.21973H3.57812V3.58008H5.21777Z" stroke="white"/>
<path d="M9.62012 3.58008V5.21973H7.98047V3.58008H9.62012Z" stroke="white"/>
<path d="M14.0186 3.58008V5.21973H12.3789V3.58008H14.0186Z" stroke="white"/>
<path d="M18.4209 3.58008V5.21973H16.7812V3.58008H18.4209Z" stroke="white"/>
</svg>
